# xmcd
#
# Track frame offsets: 
#        150
#        450
#        21803
#        32667
#        51086
#        68757
#        83651
#        98876
#        114565
#        128492
#        145538
#        161449
#        178808
#        194538
#
# Disc length: 2804 seconds
#
# Revision: 0
# Processed by: cddbd v1.5.2PL0 Copyright (c) Steve Scherf et al.
# Submitted via: ExactAudioCopy v1.1
#
DISCID=aa0af20e
DTITLE=Sue Foley and Peter Karp - He said She said
DYEAR=2010
DGENRE=Blues Rock
TTITLE0=Treat Me Right
TTITLE1=So Far So Fast
TTITLE2=Wait
TTITLE3=Rules Of Engagement
TTITLE4=Hold On Baby
TTITLE5=Umm Hmm
TTITLE6=Danger Lurks
TTITLE7=Ready For Your Love
TTITLE8=I'm Scared
TTITLE9=Valentines Day
TTITLE10=Dear Girl
TTITLE11=Baby Don't Go
TTITLE12=Regret
TTITLE13=Lost In You
EXTD=
EXTT0=
EXTT1=
EXTT2=
EXTT3=
EXTT4=
EXTT5=
EXTT6=
EXTT7=
EXTT8=
EXTT9=
EXTT10=
EXTT11=
EXTT12=
EXTT13=
PLAYORDER=
